<?xml version="1.0" encoding="UTF-8"?>
<svg xmlns="http://www.w3.org/2000/svg"
     xmlns:xlink="http://www.w3.org/1999/xlink"
     xmlns:gadfly="http://www.gadflyjl.org/ns"
     version="1.2"
     width="152.4mm" height="101.6mm" viewBox="0 0 152.4 101.6"
     stroke="none"
     fill="#000000"
     stroke-width="0.3"
     font-size="3.88"
>
<g stroke="#000000" stroke-opacity="0.000" fill="#222831" id="img-5d4c7048-1">
  <rect x="0" y="0" width="152.4" height="101.6"/>
</g>
<g class="plotroot yscalable" id="img-5d4c7048-2">
  <g font-size="3.88" font-family="'PT Sans','Helvetica Neue','Helvetica',sans-serif" fill="#A1A1A1" stroke="#000000" stroke-opacity="0.000" id="img-5d4c7048-3">
    <text x="82.68" y="89.99" text-anchor="middle" dy="0.6em">id_string</text>
  </g>
  <g class="guide xlabels" font-size="2.82" font-family="'PT Sans Caption','Helvetica Neue','Helvetica',sans-serif" fill="#A1A1A1" id="img-5d4c7048-4">
    <text x="18.28" y="79.3" text-anchor="end" dy="0.35em" transform="rotate(-90, 18.28, 79.3)">0013</text>
    <text x="18.91" y="79.3" text-anchor="end" dy="0.35em" transform="rotate(-90, 18.91, 79.3)">0085</text>
    <text x="19.55" y="79.3" text-anchor="end" dy="0.35em" transform="rotate(-90, 19.55, 79.3)">0031</text>
    <text x="20.19" y="79.3" text-anchor="end" dy="0.35em" transform="rotate(-90, 20.19, 79.3)">0140</text>
    <text x="20.83" y="79.3" text-anchor="end" dy="0.35em" transform="rotate(-90, 20.83, 79.3)">0171</text>
    <text x="21.47" y="79.3" text-anchor="end" dy="0.35em" transform="rotate(-90, 21.47, 79.3)">0163</text>
    <text x="22.1" y="79.3" text-anchor="end" dy="0.35em" transform="rotate(-90, 22.1, 79.3)">0008</text>
    <text x="22.74" y="79.3" text-anchor="end" dy="0.35em" transform="rotate(-90, 22.74, 79.3)">0164</text>
    <text x="23.38" y="79.3" text-anchor="end" dy="0.35em" transform="rotate(-90, 23.38, 79.3)">0192</text>
    <text x="24.02" y="79.3" text-anchor="end" dy="0.35em" transform="rotate(-90, 24.02, 79.3)">0041</text>
    <text x="24.65" y="79.3" text-anchor="end" dy="0.35em" transform="rotate(-90, 24.65, 79.3)">0134</text>
    <text x="25.29" y="79.3" text-anchor="end" dy="0.35em" transform="rotate(-90, 25.29, 79.3)">0076</text>
    <text x="25.93" y="79.3" text-anchor="end" dy="0.35em" transform="rotate(-90, 25.93, 79.3)">0052</text>
    <text x="26.57" y="79.3" text-anchor="end" dy="0.35em" transform="rotate(-90, 26.57, 79.3)">0018</text>
    <text x="27.2" y="79.3" text-anchor="end" dy="0.35em" transform="rotate(-90, 27.2, 79.3)">0034</text>
    <text x="27.84" y="79.3" text-anchor="end" dy="0.35em" transform="rotate(-90, 27.84, 79.3)">0188</text>
    <text x="28.48" y="79.3" text-anchor="end" dy="0.35em" transform="rotate(-90, 28.48, 79.3)">0189</text>
    <text x="29.12" y="79.3" text-anchor="end" dy="0.35em" transform="rotate(-90, 29.12, 79.3)">0142</text>
    <text x="29.75" y="79.3" text-anchor="end" dy="0.35em" transform="rotate(-90, 29.75, 79.3)">0113</text>
    <text x="30.39" y="79.3" text-anchor="end" dy="0.35em" transform="rotate(-90, 30.39, 79.3)">0166</text>
    <text x="31.03" y="79.3" text-anchor="end" dy="0.35em" transform="rotate(-90, 31.03, 79.3)">0090</text>
    <text x="31.67" y="79.3" text-anchor="end" dy="0.35em" transform="rotate(-90, 31.67, 79.3)">0087</text>
    <text x="32.31" y="79.3" text-anchor="end" dy="0.35em" transform="rotate(-90, 32.31, 79.3)">0026</text>
    <text x="32.94" y="79.3" text-anchor="end" dy="0.35em" transform="rotate(-90, 32.94, 79.3)">0004</text>
    <text x="33.58" y="79.3" text-anchor="end" dy="0.35em" transform="rotate(-90, 33.58, 79.3)">0075</text>
    <text x="34.22" y="79.3" text-anchor="end" dy="0.35em" transform="rotate(-90, 34.22, 79.3)">0187</text>
    <text x="34.86" y="79.3" text-anchor="end" dy="0.35em" transform="rotate(-90, 34.86, 79.3)">0023</text>
    <text x="35.49" y="79.3" text-anchor="end" dy="0.35em" transform="rotate(-90, 35.49, 79.3)">0168</text>
    <text x="36.13" y="79.3" text-anchor="end" dy="0.35em" transform="rotate(-90, 36.13, 79.3)">0197</text>
    <text x="36.77" y="79.3" text-anchor="end" dy="0.35em" transform="rotate(-90, 36.77, 79.3)">0101</text>
    <text x="37.41" y="79.3" text-anchor="end" dy="0.35em" transform="rotate(-90, 37.41, 79.3)">0185</text>
    <text x="38.04" y="79.3" text-anchor="end" dy="0.35em" transform="rotate(-90, 38.04, 79.3)">0060</text>
    <text x="38.68" y="79.3" text-anchor="end" dy="0.35em" transform="rotate(-90, 38.68, 79.3)">0063</text>
    <text x="39.32" y="79.3" text-anchor="end" dy="0.35em" transform="rotate(-90, 39.32, 79.3)">0078</text>
    <text x="39.96" y="79.3" text-anchor="end" dy="0.35em" transform="rotate(-90, 39.96, 79.3)">0095</text>
    <text x="40.59" y="79.3" text-anchor="end" dy="0.35em" transform="rotate(-90, 40.59, 79.3)">0170</text>
    <text x="41.23" y="79.3" text-anchor="end" dy="0.35em" transform="rotate(-90, 41.23, 79.3)">0139</text>
    <text x="41.87" y="79.3" text-anchor="end" dy="0.35em" transform="rotate(-90, 41.87, 79.3)">0080</text>
    <text x="42.51" y="79.3" text-anchor="end" dy="0.35em" transform="rotate(-90, 42.51, 79.3)">0088</text>
    <text x="43.15" y="79.3" text-anchor="end" dy="0.35em" transform="rotate(-90, 43.15, 79.3)">0195</text>
    <text x="43.78" y="79.3" text-anchor="end" dy="0.35em" transform="rotate(-90, 43.78, 79.3)">0058</text>
    <text x="44.42" y="79.3" text-anchor="end" dy="0.35em" transform="rotate(-90, 44.42, 79.3)">0040</text>
    <text x="45.06" y="79.3" text-anchor="end" dy="0.35em" transform="rotate(-90, 45.06, 79.3)">0114</text>
    <text x="45.7" y="79.3" text-anchor="end" dy="0.35em" transform="rotate(-90, 45.7, 79.3)">0066</text>
    <text x="46.33" y="79.3" text-anchor="end" dy="0.35em" transform="rotate(-90, 46.33, 79.3)">0092</text>
    <text x="46.97" y="79.3" text-anchor="end" dy="0.35em" transform="rotate(-90, 46.97, 79.3)">0048</text>
    <text x="47.61" y="79.3" text-anchor="end" dy="0.35em" transform="rotate(-90, 47.61, 79.3)">0177</text>
    <text x="48.25" y="79.3" text-anchor="end" dy="0.35em" transform="rotate(-90, 48.25, 79.3)">0111</text>
    <text x="48.88" y="79.3" text-anchor="end" dy="0.35em" transform="rotate(-90, 48.88, 79.3)">0039</text>
    <text x="49.52" y="79.3" text-anchor="end" dy="0.35em" transform="rotate(-90, 49.52, 79.3)">0180</text>
    <text x="50.16" y="79.3" text-anchor="end" dy="0.35em" transform="rotate(-90, 50.16, 79.3)">0178</text>
    <text x="50.8" y="79.3" text-anchor="end" dy="0.35em" transform="rotate(-90, 50.8, 79.3)">0183</text>
    <text x="51.43" y="79.3" text-anchor="end" dy="0.35em" transform="rotate(-90, 51.43, 79.3)">0154</text>
    <text x="52.07" y="79.3" text-anchor="end" dy="0.35em" transform="rotate(-90, 52.07, 79.3)">0172</text>
    <text x="52.71" y="79.3" text-anchor="end" dy="0.35em" transform="rotate(-90, 52.71, 79.3)">0108</text>
    <text x="53.35" y="79.3" text-anchor="end" dy="0.35em" transform="rotate(-90, 53.35, 79.3)">0107</text>
    <text x="53.99" y="79.3" text-anchor="end" dy="0.35em" transform="rotate(-90, 53.99, 79.3)">0099</text>
    <text x="54.62" y="79.3" text-anchor="end" dy="0.35em" transform="rotate(-90, 54.62, 79.3)">0068</text>
    <text x="55.26" y="79.3" text-anchor="end" dy="0.35em" transform="rotate(-90, 55.26, 79.3)">0153</text>
    <text x="55.9" y="79.3" text-anchor="end" dy="0.35em" transform="rotate(-90, 55.9, 79.3)">0086</text>
    <text x="56.54" y="79.3" text-anchor="end" dy="0.35em" transform="rotate(-90, 56.54, 79.3)">0096</text>
    <text x="57.17" y="79.3" text-anchor="end" dy="0.35em" transform="rotate(-90, 57.17, 79.3)">0165</text>
    <text x="57.81" y="79.3" text-anchor="end" dy="0.35em" transform="rotate(-90, 57.81, 79.3)">0184</text>
    <text x="58.45" y="79.3" text-anchor="end" dy="0.35em" transform="rotate(-90, 58.45, 79.3)">0125</text>
    <text x="59.09" y="79.3" text-anchor="end" dy="0.35em" transform="rotate(-90, 59.09, 79.3)">0050</text>
    <text x="59.72" y="79.3" text-anchor="end" dy="0.35em" transform="rotate(-90, 59.72, 79.3)">0074</text>
    <text x="60.36" y="79.3" text-anchor="end" dy="0.35em" transform="rotate(-90, 60.36, 79.3)">0005</text>
    <text x="61" y="79.3" text-anchor="end" dy="0.35em" transform="rotate(-90, 61, 79.3)">0173</text>
    <text x="61.64" y="79.3" text-anchor="end" dy="0.35em" transform="rotate(-90, 61.64, 79.3)">0033</text>
    <text x="62.27" y="79.3" text-anchor="end" dy="0.35em" transform="rotate(-90, 62.27, 79.3)">0199</text>
    <text x="62.91" y="79.3" text-anchor="end" dy="0.35em" transform="rotate(-90, 62.91, 79.3)">0001</text>
    <text x="63.55" y="79.3" text-anchor="end" dy="0.35em" transform="rotate(-90, 63.55, 79.3)">0137</text>
    <text x="64.19" y="79.3" text-anchor="end" dy="0.35em" transform="rotate(-90, 64.19, 79.3)">0136</text>
    <text x="64.83" y="79.3" text-anchor="end" dy="0.35em" transform="rotate(-90, 64.83, 79.3)">0003</text>
    <text x="65.46" y="79.3" text-anchor="end" dy="0.35em" transform="rotate(-90, 65.46, 79.3)">0082</text>
    <text x="66.1" y="79.3" text-anchor="end" dy="0.35em" transform="rotate(-90, 66.1, 79.3)">0067</text>
    <text x="66.74" y="79.3" text-anchor="end" dy="0.35em" transform="rotate(-90, 66.74, 79.3)">0128</text>
    <text x="67.38" y="79.3" text-anchor="end" dy="0.35em" transform="rotate(-90, 67.38, 79.3)">0198</text>
    <text x="68.01" y="79.3" text-anchor="end" dy="0.35em" transform="rotate(-90, 68.01, 79.3)">0006</text>
    <text x="68.65" y="79.3" text-anchor="end" dy="0.35em" transform="rotate(-90, 68.65, 79.3)">0159</text>
    <text x="69.29" y="79.3" text-anchor="end" dy="0.35em" transform="rotate(-90, 69.29, 79.3)">0112</text>
    <text x="69.93" y="79.3" text-anchor="end" dy="0.35em" transform="rotate(-90, 69.93, 79.3)">0010</text>
    <text x="70.56" y="79.3" text-anchor="end" dy="0.35em" transform="rotate(-90, 70.56, 79.3)">0073</text>
    <text x="71.2" y="79.3" text-anchor="end" dy="0.35em" transform="rotate(-90, 71.2, 79.3)">0071</text>
    <text x="71.84" y="79.3" text-anchor="end" dy="0.35em" transform="rotate(-90, 71.84, 79.3)">0032</text>
    <text x="72.48" y="79.3" text-anchor="end" dy="0.35em" transform="rotate(-90, 72.48, 79.3)">0056</text>
    <text x="73.11" y="79.3" text-anchor="end" dy="0.35em" transform="rotate(-90, 73.11, 79.3)">0138</text>
    <text x="73.75" y="79.3" text-anchor="end" dy="0.35em" transform="rotate(-90, 73.75, 79.3)">0021</text>
    <text x="74.39" y="79.3" text-anchor="end" dy="0.35em" transform="rotate(-90, 74.39, 79.3)">0109</text>
    <text x="75.03" y="79.3" text-anchor="end" dy="0.35em" transform="rotate(-90, 75.03, 79.3)">0094</text>
    <text x="75.67" y="79.3" text-anchor="end" dy="0.35em" transform="rotate(-90, 75.67, 79.3)">0020</text>
    <text x="76.3" y="79.3" text-anchor="end" dy="0.35em" transform="rotate(-90, 76.3, 79.3)">0102</text>
    <text x="76.94" y="79.3" text-anchor="end" dy="0.35em" transform="rotate(-90, 76.94, 79.3)">0191</text>
    <text x="77.58" y="79.3" text-anchor="end" dy="0.35em" transform="rotate(-90, 77.58, 79.3)">0042</text>
    <text x="78.22" y="79.3" text-anchor="end" dy="0.35em" transform="rotate(-90, 78.22, 79.3)">0160</text>
    <text x="78.85" y="79.3" text-anchor="end" dy="0.35em" transform="rotate(-90, 78.85, 79.3)">0024</text>
    <text x="79.49" y="79.3" text-anchor="end" dy="0.35em" transform="rotate(-90, 79.49, 79.3)">0007</text>
    <text x="80.13" y="79.3" text-anchor="end" dy="0.35em" transform="rotate(-90, 80.13, 79.3)">0158</text>
    <text x="80.77" y="79.3" text-anchor="end" dy="0.35em" transform="rotate(-90, 80.77, 79.3)">0045</text>
    <text x="81.4" y="79.3" text-anchor="end" dy="0.35em" transform="rotate(-90, 81.4, 79.3)">0072</text>
    <text x="82.04" y="79.3" text-anchor="end" dy="0.35em" transform="rotate(-90, 82.04, 79.3)">0037</text>
    <text x="82.68" y="79.3" text-anchor="end" dy="0.35em" transform="rotate(-90, 82.68, 79.3)">0110</text>
    <text x="83.32" y="79.3" text-anchor="end" dy="0.35em" transform="rotate(-90, 83.32, 79.3)">0069</text>
    <text x="83.95" y="79.3" text-anchor="end" dy="0.35em" transform="rotate(-90, 83.95, 79.3)">0131</text>
    <text x="84.59" y="79.3" text-anchor="end" dy="0.35em" transform="rotate(-90, 84.59, 79.3)">0156</text>
    <text x="85.23" y="79.3" text-anchor="end" dy="0.35em" transform="rotate(-90, 85.23, 79.3)">0104</text>
    <text x="85.87" y="79.3" text-anchor="end" dy="0.35em" transform="rotate(-90, 85.87, 79.3)">0028</text>
    <text x="86.51" y="79.3" text-anchor="end" dy="0.35em" transform="rotate(-90, 86.51, 79.3)">0070</text>
    <text x="87.14" y="79.3" text-anchor="end" dy="0.35em" transform="rotate(-90, 87.14, 79.3)">0054</text>
    <text x="87.78" y="79.3" text-anchor="end" dy="0.35em" transform="rotate(-90, 87.78, 79.3)">0200</text>
    <text x="88.42" y="79.3" text-anchor="end" dy="0.35em" transform="rotate(-90, 88.42, 79.3)">0091</text>
    <text x="89.06" y="79.3" text-anchor="end" dy="0.35em" transform="rotate(-90, 89.06, 79.3)">0201</text>
    <text x="89.69" y="79.3" text-anchor="end" dy="0.35em" transform="rotate(-90, 89.69, 79.3)">0106</text>
    <text x="90.33" y="79.3" text-anchor="end" dy="0.35em" transform="rotate(-90, 90.33, 79.3)">0012</text>
    <text x="90.97" y="79.3" text-anchor="end" dy="0.35em" transform="rotate(-90, 90.97, 79.3)">0117</text>
    <text x="91.61" y="79.3" text-anchor="end" dy="0.35em" transform="rotate(-90, 91.61, 79.3)">0002</text>
    <text x="92.24" y="79.3" text-anchor="end" dy="0.35em" transform="rotate(-90, 92.24, 79.3)">0014</text>
    <text x="92.88" y="79.3" text-anchor="end" dy="0.35em" transform="rotate(-90, 92.88, 79.3)">0057</text>
    <text x="93.52" y="79.3" text-anchor="end" dy="0.35em" transform="rotate(-90, 93.52, 79.3)">0127</text>
    <text x="94.16" y="79.3" text-anchor="end" dy="0.35em" transform="rotate(-90, 94.16, 79.3)">0126</text>
    <text x="94.79" y="79.3" text-anchor="end" dy="0.35em" transform="rotate(-90, 94.79, 79.3)">0190</text>
    <text x="95.43" y="79.3" text-anchor="end" dy="0.35em" transform="rotate(-90, 95.43, 79.3)">0015</text>
    <text x="96.07" y="79.3" text-anchor="end" dy="0.35em" transform="rotate(-90, 96.07, 79.3)">0055</text>
    <text x="96.71" y="79.3" text-anchor="end" dy="0.35em" transform="rotate(-90, 96.71, 79.3)">0181</text>
    <text x="97.34" y="79.3" text-anchor="end" dy="0.35em" transform="rotate(-90, 97.34, 79.3)">0133</text>
    <text x="97.98" y="79.3" text-anchor="end" dy="0.35em" transform="rotate(-90, 97.98, 79.3)">0155</text>
    <text x="98.62" y="79.3" text-anchor="end" dy="0.35em" transform="rotate(-90, 98.62, 79.3)">0148</text>
    <text x="99.26" y="79.3" text-anchor="end" dy="0.35em" transform="rotate(-90, 99.26, 79.3)">0186</text>
    <text x="99.9" y="79.3" text-anchor="end" dy="0.35em" transform="rotate(-90, 99.9, 79.3)">0122</text>
    <text x="100.53" y="79.3" text-anchor="end" dy="0.35em" transform="rotate(-90, 100.53, 79.3)">0182</text>
    <text x="101.17" y="79.3" text-anchor="end" dy="0.35em" transform="rotate(-90, 101.17, 79.3)">0009</text>
    <text x="101.81" y="79.3" text-anchor="end" dy="0.35em" transform="rotate(-90, 101.81, 79.3)">0115</text>
    <text x="102.45" y="79.3" text-anchor="end" dy="0.35em" transform="rotate(-90, 102.45, 79.3)">0161</text>
    <text x="103.08" y="79.3" text-anchor="end" dy="0.35em" transform="rotate(-90, 103.08, 79.3)">0100</text>
    <text x="103.72" y="79.3" text-anchor="end" dy="0.35em" transform="rotate(-90, 103.72, 79.3)">0083</text>
    <text x="104.36" y="79.3" text-anchor="end" dy="0.35em" transform="rotate(-90, 104.36, 79.3)">0118</text>
    <text x="105" y="79.3" text-anchor="end" dy="0.35em" transform="rotate(-90, 105, 79.3)">0130</text>
    <text x="105.63" y="79.3" text-anchor="end" dy="0.35em" transform="rotate(-90, 105.63, 79.3)">0167</text>
    <text x="106.27" y="79.3" text-anchor="end" dy="0.35em" transform="rotate(-90, 106.27, 79.3)">0129</text>
    <text x="106.91" y="79.3" text-anchor="end" dy="0.35em" transform="rotate(-90, 106.91, 79.3)">0132</text>
    <text x="107.55" y="79.3" text-anchor="end" dy="0.35em" transform="rotate(-90, 107.55, 79.3)">0059</text>
    <text x="108.18" y="79.3" text-anchor="end" dy="0.35em" transform="rotate(-90, 108.18, 79.3)">0027</text>
    <text x="108.82" y="79.3" text-anchor="end" dy="0.35em" transform="rotate(-90, 108.82, 79.3)">0194</text>
    <text x="109.46" y="79.3" text-anchor="end" dy="0.35em" transform="rotate(-90, 109.46, 79.3)">0093</text>
    <text x="110.1" y="79.3" text-anchor="end" dy="0.35em" transform="rotate(-90, 110.1, 79.3)">0030</text>
    <text x="110.74" y="79.3" text-anchor="end" dy="0.35em" transform="rotate(-90, 110.74, 79.3)">0193</text>
    <text x="111.37" y="79.3" text-anchor="end" dy="0.35em" transform="rotate(-90, 111.37, 79.3)">0038</text>
    <text x="112.01" y="79.3" text-anchor="end" dy="0.35em" transform="rotate(-90, 112.01, 79.3)">0016</text>
    <text x="112.65" y="79.3" text-anchor="end" dy="0.35em" transform="rotate(-90, 112.65, 79.3)">0149</text>
    <text x="113.29" y="79.3" text-anchor="end" dy="0.35em" transform="rotate(-90, 113.29, 79.3)">0011</text>
    <text x="113.92" y="79.3" text-anchor="end" dy="0.35em" transform="rotate(-90, 113.92, 79.3)">0084</text>
    <text x="114.56" y="79.3" text-anchor="end" dy="0.35em" transform="rotate(-90, 114.56, 79.3)">0176</text>
    <text x="115.2" y="79.3" text-anchor="end" dy="0.35em" transform="rotate(-90, 115.2, 79.3)">0203</text>
    <text x="115.84" y="79.3" text-anchor="end" dy="0.35em" transform="rotate(-90, 115.84, 79.3)">0025</text>
    <text x="116.47" y="79.3" text-anchor="end" dy="0.35em" transform="rotate(-90, 116.47, 79.3)">0141</text>
    <text x="117.11" y="79.3" text-anchor="end" dy="0.35em" transform="rotate(-90, 117.11, 79.3)">0043</text>
    <text x="117.75" y="79.3" text-anchor="end" dy="0.35em" transform="rotate(-90, 117.75, 79.3)">0150</text>
    <text x="118.39" y="79.3" text-anchor="end" dy="0.35em" transform="rotate(-90, 118.39, 79.3)">0196</text>
    <text x="119.02" y="79.3" text-anchor="end" dy="0.35em" transform="rotate(-90, 119.02, 79.3)">0029</text>
    <text x="119.66" y="79.3" text-anchor="end" dy="0.35em" transform="rotate(-90, 119.66, 79.3)">0081</text>
    <text x="120.3" y="79.3" text-anchor="end" dy="0.35em" transform="rotate(-90, 120.3, 79.3)">0135</text>
    <text x="120.94" y="79.3" text-anchor="end" dy="0.35em" transform="rotate(-90, 120.94, 79.3)">0174</text>
    <text x="121.58" y="79.3" text-anchor="end" dy="0.35em" transform="rotate(-90, 121.58, 79.3)">0146</text>
    <text x="122.21" y="79.3" text-anchor="end" dy="0.35em" transform="rotate(-90, 122.21, 79.3)">0036</text>
    <text x="122.85" y="79.3" text-anchor="end" dy="0.35em" transform="rotate(-90, 122.85, 79.3)">0089</text>
    <text x="123.49" y="79.3" text-anchor="end" dy="0.35em" transform="rotate(-90, 123.49, 79.3)">0053</text>
    <text x="124.13" y="79.3" text-anchor="end" dy="0.35em" transform="rotate(-90, 124.13, 79.3)">0169</text>
    <text x="124.76" y="79.3" text-anchor="end" dy="0.35em" transform="rotate(-90, 124.76, 79.3)">0121</text>
    <text x="125.4" y="79.3" text-anchor="end" dy="0.35em" transform="rotate(-90, 125.4, 79.3)">0120</text>
    <text x="126.04" y="79.3" text-anchor="end" dy="0.35em" transform="rotate(-90, 126.04, 79.3)">0144</text>
    <text x="126.68" y="79.3" text-anchor="end" dy="0.35em" transform="rotate(-90, 126.68, 79.3)">0157</text>
    <text x="127.31" y="79.3" text-anchor="end" dy="0.35em" transform="rotate(-90, 127.31, 79.3)">0035</text>
    <text x="127.95" y="79.3" text-anchor="end" dy="0.35em" transform="rotate(-90, 127.95, 79.3)">0064</text>
    <text x="128.59" y="79.3" text-anchor="end" dy="0.35em" transform="rotate(-90, 128.59, 79.3)">0147</text>
    <text x="129.23" y="79.3" text-anchor="end" dy="0.35em" transform="rotate(-90, 129.23, 79.3)">0098</text>
    <text x="129.86" y="79.3" text-anchor="end" dy="0.35em" transform="rotate(-90, 129.86, 79.3)">0079</text>
    <text x="130.5" y="79.3" text-anchor="end" dy="0.35em" transform="rotate(-90, 130.5, 79.3)">0049</text>
    <text x="131.14" y="79.3" text-anchor="end" dy="0.35em" transform="rotate(-90, 131.14, 79.3)">0151</text>
    <text x="131.78" y="79.3" text-anchor="end" dy="0.35em" transform="rotate(-90, 131.78, 79.3)">0152</text>
    <text x="132.42" y="79.3" text-anchor="end" dy="0.35em" transform="rotate(-90, 132.42, 79.3)">0062</text>
    <text x="133.05" y="79.3" text-anchor="end" dy="0.35em" transform="rotate(-90, 133.05, 79.3)">0065</text>
    <text x="133.69" y="79.3" text-anchor="end" dy="0.35em" transform="rotate(-90, 133.69, 79.3)">0097</text>
    <text x="134.33" y="79.3" text-anchor="end" dy="0.35em" transform="rotate(-90, 134.33, 79.3)">0143</text>
    <text x="134.97" y="79.3" text-anchor="end" dy="0.35em" transform="rotate(-90, 134.97, 79.3)">0019</text>
    <text x="135.6" y="79.3" text-anchor="end" dy="0.35em" transform="rotate(-90, 135.6, 79.3)">0119</text>
    <text x="136.24" y="79.3" text-anchor="end" dy="0.35em" transform="rotate(-90, 136.24, 79.3)">0105</text>
    <text x="136.88" y="79.3" text-anchor="end" dy="0.35em" transform="rotate(-90, 136.88, 79.3)">0044</text>
    <text x="137.52" y="79.3" text-anchor="end" dy="0.35em" transform="rotate(-90, 137.52, 79.3)">0179</text>
    <text x="138.15" y="79.3" text-anchor="end" dy="0.35em" transform="rotate(-90, 138.15, 79.3)">0051</text>
    <text x="138.79" y="79.3" text-anchor="end" dy="0.35em" transform="rotate(-90, 138.79, 79.3)">0145</text>
    <text x="139.43" y="79.3" text-anchor="end" dy="0.35em" transform="rotate(-90, 139.43, 79.3)">0116</text>
    <text x="140.07" y="79.3" text-anchor="end" dy="0.35em" transform="rotate(-90, 140.07, 79.3)">0162</text>
    <text x="140.7" y="79.3" text-anchor="end" dy="0.35em" transform="rotate(-90, 140.7, 79.3)">0046</text>
    <text x="141.34" y="79.3" text-anchor="end" dy="0.35em" transform="rotate(-90, 141.34, 79.3)">0022</text>
    <text x="141.98" y="79.3" text-anchor="end" dy="0.35em" transform="rotate(-90, 141.98, 79.3)">0124</text>
    <text x="142.62" y="79.3" text-anchor="end" dy="0.35em" transform="rotate(-90, 142.62, 79.3)">0175</text>
    <text x="143.26" y="79.3" text-anchor="end" dy="0.35em" transform="rotate(-90, 143.26, 79.3)">0202</text>
    <text x="143.89" y="79.3" text-anchor="end" dy="0.35em" transform="rotate(-90, 143.89, 79.3)">0103</text>
    <text x="144.53" y="79.3" text-anchor="end" dy="0.35em" transform="rotate(-90, 144.53, 79.3)">0077</text>
    <text x="145.17" y="79.3" text-anchor="end" dy="0.35em" transform="rotate(-90, 145.17, 79.3)">0123</text>
    <text x="145.81" y="79.3" text-anchor="end" dy="0.35em" transform="rotate(-90, 145.81, 79.3)">0061</text>
    <text x="146.44" y="79.3" text-anchor="end" dy="0.35em" transform="rotate(-90, 146.44, 79.3)">0047</text>
    <text x="147.08" y="79.3" text-anchor="end" dy="0.35em" transform="rotate(-90, 147.08, 79.3)">0017</text>
  </g>
<g clip-path="url(#img-5d4c7048-5)">
  <g id="img-5d4c7048-6">
    <g pointer-events="visible" opacity="1" fill="#222831" stroke="#000000" stroke-opacity="0.000" class="guide background" id="img-5d4c7048-7">
      <rect x="17.96" y="5" width="129.44" height="73.3"/>
    </g>
    <g class="guide ygridlines xfixed" stroke-dasharray="0.5,0.5" stroke-width="0.2" stroke="#575757" id="img-5d4c7048-8">
      <path fill="none" d="M17.96,76.29 L 147.4 76.29"/>
      <path fill="none" d="M17.96,64.75 L 147.4 64.75"/>
      <path fill="none" d="M17.96,53.2 L 147.4 53.2"/>
      <path fill="none" d="M17.96,41.65 L 147.4 41.65"/>
      <path fill="none" d="M17.96,30.1 L 147.4 30.1"/>
      <path fill="none" d="M17.96,18.55 L 147.4 18.55"/>
      <path fill="none" d="M17.96,7 L 147.4 7"/>
    </g>
    <g class="guide xgridlines yfixed" stroke-dasharray="0.5,0.5" stroke-width="0.2" stroke="#575757" id="img-5d4c7048-9">
      <path fill="none" d="M18.6,5 L 18.6 78.3"/>
      <path fill="none" d="M19.23,5 L 19.23 78.3"/>
      <path fill="none" d="M19.87,5 L 19.87 78.3"/>
      <path fill="none" d="M20.51,5 L 20.51 78.3"/>
      <path fill="none" d="M21.15,5 L 21.15 78.3"/>
      <path fill="none" d="M21.78,5 L 21.78 78.3"/>
      <path fill="none" d="M22.42,5 L 22.42 78.3"/>
      <path fill="none" d="M23.06,5 L 23.06 78.3"/>
      <path fill="none" d="M23.7,5 L 23.7 78.3"/>
      <path fill="none" d="M24.33,5 L 24.33 78.3"/>
      <path fill="none" d="M24.97,5 L 24.97 78.3"/>
      <path fill="none" d="M25.61,5 L 25.61 78.3"/>
      <path fill="none" d="M26.25,5 L 26.25 78.3"/>
      <path fill="none" d="M26.89,5 L 26.89 78.3"/>
      <path fill="none" d="M27.52,5 L 27.52 78.3"/>
      <path fill="none" d="M28.16,5 L 28.16 78.3"/>
      <path fill="none" d="M28.8,5 L 28.8 78.3"/>
      <path fill="none" d="M29.44,5 L 29.44 78.3"/>
      <path fill="none" d="M30.07,5 L 30.07 78.3"/>
      <path fill="none" d="M30.71,5 L 30.71 78.3"/>
      <path fill="none" d="M31.35,5 L 31.35 78.3"/>
      <path fill="none" d="M31.99,5 L 31.99 78.3"/>
      <path fill="none" d="M32.62,5 L 32.62 78.3"/>
      <path fill="none" d="M33.26,5 L 33.26 78.3"/>
      <path fill="none" d="M33.9,5 L 33.9 78.3"/>
      <path fill="none" d="M34.54,5 L 34.54 78.3"/>
      <path fill="none" d="M35.17,5 L 35.17 78.3"/>
      <path fill="none" d="M35.81,5 L 35.81 78.3"/>
      <path fill="none" d="M36.45,5 L 36.45 78.3"/>
      <path fill="none" d="M37.09,5 L 37.09 78.3"/>
      <path fill="none" d="M37.73,5 L 37.73 78.3"/>
      <path fill="none" d="M38.36,5 L 38.36 78.3"/>
      <path fill="none" d="M39,5 L 39 78.3"/>
      <path fill="none" d="M39.64,5 L 39.64 78.3"/>
      <path fill="none" d="M40.28,5 L 40.28 78.3"/>
      <path fill="none" d="M40.91,5 L 40.91 78.3"/>
      <path fill="none" d="M41.55,5 L 41.55 78.3"/>
      <path fill="none" d="M42.19,5 L 42.19 78.3"/>
      <path fill="none" d="M42.83,5 L 42.83 78.3"/>
      <path fill="none" d="M43.46,5 L 43.46 78.3"/>
      <path fill="none" d="M44.1,5 L 44.1 78.3"/>
      <path fill="none" d="M44.74,5 L 44.74 78.3"/>
      <path fill="none" d="M45.38,5 L 45.38 78.3"/>
      <path fill="none" d="M46.01,5 L 46.01 78.3"/>
      <path fill="none" d="M46.65,5 L 46.65 78.3"/>
      <path fill="none" d="M47.29,5 L 47.29 78.3"/>
      <path fill="none" d="M47.93,5 L 47.93 78.3"/>
      <path fill="none" d="M48.57,5 L 48.57 78.3"/>
      <path fill="none" d="M49.2,5 L 49.2 78.3"/>
      <path fill="none" d="M49.84,5 L 49.84 78.3"/>
      <path fill="none" d="M50.48,5 L 50.48 78.3"/>
      <path fill="none" d="M51.12,5 L 51.12 78.3"/>
      <path fill="none" d="M51.75,5 L 51.75 78.3"/>
      <path fill="none" d="M52.39,5 L 52.39 78.3"/>
      <path fill="none" d="M53.03,5 L 53.03 78.3"/>
      <path fill="none" d="M53.67,5 L 53.67 78.3"/>
      <path fill="none" d="M54.3,5 L 54.3 78.3"/>
      <path fill="none" d="M54.94,5 L 54.94 78.3"/>
      <path fill="none" d="M55.58,5 L 55.58 78.3"/>
      <path fill="none" d="M56.22,5 L 56.22 78.3"/>
      <path fill="none" d="M56.85,5 L 56.85 78.3"/>
      <path fill="none" d="M57.49,5 L 57.49 78.3"/>
      <path fill="none" d="M58.13,5 L 58.13 78.3"/>
      <path fill="none" d="M58.77,5 L 58.77 78.3"/>
      <path fill="none" d="M59.41,5 L 59.41 78.3"/>
      <path fill="none" d="M60.04,5 L 60.04 78.3"/>
      <path fill="none" d="M60.68,5 L 60.68 78.3"/>
      <path fill="none" d="M61.32,5 L 61.32 78.3"/>
      <path fill="none" d="M61.96,5 L 61.96 78.3"/>
      <path fill="none" d="M62.59,5 L 62.59 78.3"/>
      <path fill="none" d="M63.23,5 L 63.23 78.3"/>
      <path fill="none" d="M63.87,5 L 63.87 78.3"/>
      <path fill="none" d="M64.51,5 L 64.51 78.3"/>
      <path fill="none" d="M65.14,5 L 65.14 78.3"/>
      <path fill="none" d="M65.78,5 L 65.78 78.3"/>
      <path fill="none" d="M66.42,5 L 66.42 78.3"/>
      <path fill="none" d="M67.06,5 L 67.06 78.3"/>
      <path fill="none" d="M67.69,5 L 67.69 78.3"/>
      <path fill="none" d="M68.33,5 L 68.33 78.3"/>
      <path fill="none" d="M68.97,5 L 68.97 78.3"/>
      <path fill="none" d="M69.61,5 L 69.61 78.3"/>
      <path fill="none" d="M70.25,5 L 70.25 78.3"/>
      <path fill="none" d="M70.88,5 L 70.88 78.3"/>
      <path fill="none" d="M71.52,5 L 71.52 78.3"/>
      <path fill="none" d="M72.16,5 L 72.16 78.3"/>
      <path fill="none" d="M72.8,5 L 72.8 78.3"/>
      <path fill="none" d="M73.43,5 L 73.43 78.3"/>
      <path fill="none" d="M74.07,5 L 74.07 78.3"/>
      <path fill="none" d="M74.71,5 L 74.71 78.3"/>
      <path fill="none" d="M75.35,5 L 75.35 78.3"/>
      <path fill="none" d="M75.98,5 L 75.98 78.3"/>
      <path fill="none" d="M76.62,5 L 76.62 78.3"/>
      <path fill="none" d="M77.26,5 L 77.26 78.3"/>
      <path fill="none" d="M77.9,5 L 77.9 78.3"/>
      <path fill="none" d="M78.53,5 L 78.53 78.3"/>
      <path fill="none" d="M79.17,5 L 79.17 78.3"/>
      <path fill="none" d="M79.81,5 L 79.81 78.3"/>
      <path fill="none" d="M80.45,5 L 80.45 78.3"/>
      <path fill="none" d="M81.09,5 L 81.09 78.3"/>
      <path fill="none" d="M81.72,5 L 81.72 78.3"/>
      <path fill="none" d="M82.36,5 L 82.36 78.3"/>
      <path fill="none" d="M83,5 L 83 78.3"/>
      <path fill="none" d="M83.64,5 L 83.64 78.3"/>
      <path fill="none" d="M84.27,5 L 84.27 78.3"/>
      <path fill="none" d="M84.91,5 L 84.91 78.3"/>
      <path fill="none" d="M85.55,5 L 85.55 78.3"/>
      <path fill="none" d="M86.19,5 L 86.19 78.3"/>
      <path fill="none" d="M86.82,5 L 86.82 78.3"/>
      <path fill="none" d="M87.46,5 L 87.46 78.3"/>
      <path fill="none" d="M88.1,5 L 88.1 78.3"/>
      <path fill="none" d="M88.74,5 L 88.74 78.3"/>
      <path fill="none" d="M89.37,5 L 89.37 78.3"/>
      <path fill="none" d="M90.01,5 L 90.01 78.3"/>
      <path fill="none" d="M90.65,5 L 90.65 78.3"/>
      <path fill="none" d="M91.29,5 L 91.29 78.3"/>
      <path fill="none" d="M91.92,5 L 91.92 78.3"/>
      <path fill="none" d="M92.56,5 L 92.56 78.3"/>
      <path fill="none" d="M93.2,5 L 93.2 78.3"/>
      <path fill="none" d="M93.84,5 L 93.84 78.3"/>
      <path fill="none" d="M94.48,5 L 94.48 78.3"/>
      <path fill="none" d="M95.11,5 L 95.11 78.3"/>
      <path fill="none" d="M95.75,5 L 95.75 78.3"/>
      <path fill="none" d="M96.39,5 L 96.39 78.3"/>
      <path fill="none" d="M97.03,5 L 97.03 78.3"/>
      <path fill="none" d="M97.66,5 L 97.66 78.3"/>
      <path fill="none" d="M98.3,5 L 98.3 78.3"/>
      <path fill="none" d="M98.94,5 L 98.94 78.3"/>
      <path fill="none" d="M99.58,5 L 99.58 78.3"/>
      <path fill="none" d="M100.21,5 L 100.21 78.3"/>
      <path fill="none" d="M100.85,5 L 100.85 78.3"/>
      <path fill="none" d="M101.49,5 L 101.49 78.3"/>
      <path fill="none" d="M102.13,5 L 102.13 78.3"/>
      <path fill="none" d="M102.76,5 L 102.76 78.3"/>
      <path fill="none" d="M103.4,5 L 103.4 78.3"/>
      <path fill="none" d="M104.04,5 L 104.04 78.3"/>
      <path fill="none" d="M104.68,5 L 104.68 78.3"/>
      <path fill="none" d="M105.32,5 L 105.32 78.3"/>
      <path fill="none" d="M105.95,5 L 105.95 78.3"/>
      <path fill="none" d="M106.59,5 L 106.59 78.3"/>
      <path fill="none" d="M107.23,5 L 107.23 78.3"/>
      <path fill="none" d="M107.87,5 L 107.87 78.3"/>
      <path fill="none" d="M108.5,5 L 108.5 78.3"/>
      <path fill="none" d="M109.14,5 L 109.14 78.3"/>
      <path fill="none" d="M109.78,5 L 109.78 78.3"/>
      <path fill="none" d="M110.42,5 L 110.42 78.3"/>
      <path fill="none" d="M111.05,5 L 111.05 78.3"/>
      <path fill="none" d="M111.69,5 L 111.69 78.3"/>
      <path fill="none" d="M112.33,5 L 112.33 78.3"/>
      <path fill="none" d="M112.97,5 L 112.97 78.3"/>
      <path fill="none" d="M113.6,5 L 113.6 78.3"/>
      <path fill="none" d="M114.24,5 L 114.24 78.3"/>
      <path fill="none" d="M114.88,5 L 114.88 78.3"/>
      <path fill="none" d="M115.52,5 L 115.52 78.3"/>
      <path fill="none" d="M116.16,5 L 116.16 78.3"/>
      <path fill="none" d="M116.79,5 L 116.79 78.3"/>
      <path fill="none" d="M117.43,5 L 117.43 78.3"/>
      <path fill="none" d="M118.07,5 L 118.07 78.3"/>
      <path fill="none" d="M118.71,5 L 118.71 78.3"/>
      <path fill="none" d="M119.34,5 L 119.34 78.3"/>
      <path fill="none" d="M119.98,5 L 119.98 78.3"/>
      <path fill="none" d="M120.62,5 L 120.62 78.3"/>
      <path fill="none" d="M121.26,5 L 121.26 78.3"/>
      <path fill="none" d="M121.89,5 L 121.89 78.3"/>
      <path fill="none" d="M122.53,5 L 122.53 78.3"/>
      <path fill="none" d="M123.17,5 L 123.17 78.3"/>
      <path fill="none" d="M123.81,5 L 123.81 78.3"/>
      <path fill="none" d="M124.44,5 L 124.44 78.3"/>
      <path fill="none" d="M125.08,5 L 125.08 78.3"/>
      <path fill="none" d="M125.72,5 L 125.72 78.3"/>
      <path fill="none" d="M126.36,5 L 126.36 78.3"/>
      <path fill="none" d="M127,5 L 127 78.3"/>
      <path fill="none" d="M127.63,5 L 127.63 78.3"/>
      <path fill="none" d="M128.27,5 L 128.27 78.3"/>
      <path fill="none" d="M128.91,5 L 128.91 78.3"/>
      <path fill="none" d="M129.55,5 L 129.55 78.3"/>
      <path fill="none" d="M130.18,5 L 130.18 78.3"/>
      <path fill="none" d="M130.82,5 L 130.82 78.3"/>
      <path fill="none" d="M131.46,5 L 131.46 78.3"/>
      <path fill="none" d="M132.1,5 L 132.1 78.3"/>
      <path fill="none" d="M132.73,5 L 132.73 78.3"/>
      <path fill="none" d="M133.37,5 L 133.37 78.3"/>
      <path fill="none" d="M134.01,5 L 134.01 78.3"/>
      <path fill="none" d="M134.65,5 L 134.65 78.3"/>
      <path fill="none" d="M135.28,5 L 135.28 78.3"/>
      <path fill="none" d="M135.92,5 L 135.92 78.3"/>
      <path fill="none" d="M136.56,5 L 136.56 78.3"/>
      <path fill="none" d="M137.2,5 L 137.2 78.3"/>
      <path fill="none" d="M137.84,5 L 137.84 78.3"/>
      <path fill="none" d="M138.47,5 L 138.47 78.3"/>
      <path fill="none" d="M139.11,5 L 139.11 78.3"/>
      <path fill="none" d="M139.75,5 L 139.75 78.3"/>
      <path fill="none" d="M140.39,5 L 140.39 78.3"/>
      <path fill="none" d="M141.02,5 L 141.02 78.3"/>
      <path fill="none" d="M141.66,5 L 141.66 78.3"/>
      <path fill="none" d="M142.3,5 L 142.3 78.3"/>
      <path fill="none" d="M142.94,5 L 142.94 78.3"/>
      <path fill="none" d="M143.57,5 L 143.57 78.3"/>
      <path fill="none" d="M144.21,5 L 144.21 78.3"/>
      <path fill="none" d="M144.85,5 L 144.85 78.3"/>
      <path fill="none" d="M145.49,5 L 145.49 78.3"/>
      <path fill="none" d="M146.12,5 L 146.12 78.3"/>
      <path fill="none" d="M146.76,5 L 146.76 78.3"/>
    </g>
    <g class="plotpanel" id="img-5d4c7048-10">
      <g class="geometry" id="img-5d4c7048-11">
        <g class="color_RGBA{Float32}(0.9960785f0,0.2627451f0,0.39607847f0,1.0f0)" stroke="#B58486" stroke-width="0.3" fill="#FE4365" id="img-5d4c7048-12">
          <use xlink:href="#img-5d4c7048-13" x="18.28" y="41.65"/>
          <use xlink:href="#img-5d4c7048-13" x="18.91" y="39.34"/>
          <use xlink:href="#img-5d4c7048-13" x="19.55" y="45.11"/>
          <use xlink:href="#img-5d4c7048-13" x="20.19" y="63.59"/>
          <use xlink:href="#img-5d4c7048-13" x="20.83" y="43.96"/>
          <use xlink:href="#img-5d4c7048-13" x="21.47" y="49.73"/>
          <use xlink:href="#img-5d4c7048-13" x="22.1" y="45.11"/>
          <use xlink:href="#img-5d4c7048-13" x="22.74" y="65.9"/>
          <use xlink:href="#img-5d4c7048-13" x="23.38" y="61.28"/>
          <use xlink:href="#img-5d4c7048-13" x="24.02" y="41.65"/>
          <use xlink:href="#img-5d4c7048-13" x="24.65" y="47.42"/>
          <use xlink:href="#img-5d4c7048-13" x="25.29" y="26.63"/>
          <use xlink:href="#img-5d4c7048-13" x="25.93" y="65.9"/>
          <use xlink:href="#img-5d4c7048-13" x="26.57" y="72.83"/>
          <use xlink:href="#img-5d4c7048-13" x="27.2" y="56.66"/>
          <use xlink:href="#img-5d4c7048-13" x="27.84" y="32.41"/>
          <use xlink:href="#img-5d4c7048-13" x="28.48" y="40.49"/>
          <use xlink:href="#img-5d4c7048-13" x="29.12" y="47.42"/>
          <use xlink:href="#img-5d4c7048-13" x="29.75" y="45.11"/>
          <use xlink:href="#img-5d4c7048-13" x="30.39" y="50.89"/>
          <use xlink:href="#img-5d4c7048-13" x="31.03" y="43.96"/>
          <use xlink:href="#img-5d4c7048-13" x="31.67" y="42.8"/>
          <use xlink:href="#img-5d4c7048-13" x="32.31" y="48.58"/>
          <use xlink:href="#img-5d4c7048-13" x="32.94" y="46.27"/>
          <use xlink:href="#img-5d4c7048-13" x="33.58" y="46.27"/>
          <use xlink:href="#img-5d4c7048-13" x="34.22" y="41.65"/>
          <use xlink:href="#img-5d4c7048-13" x="34.86" y="39.34"/>
          <use xlink:href="#img-5d4c7048-13" x="35.49" y="47.42"/>
          <use xlink:href="#img-5d4c7048-13" x="36.13" y="50.89"/>
          <use xlink:href="#img-5d4c7048-13" x="36.77" y="69.37"/>
          <use xlink:href="#img-5d4c7048-13" x="37.41" y="46.27"/>
          <use xlink:href="#img-5d4c7048-13" x="38.04" y="68.21"/>
          <use xlink:href="#img-5d4c7048-13" x="38.68" y="49.73"/>
          <use xlink:href="#img-5d4c7048-13" x="39.32" y="41.65"/>
          <use xlink:href="#img-5d4c7048-13" x="39.96" y="54.35"/>
          <use xlink:href="#img-5d4c7048-13" x="40.59" y="70.52"/>
          <use xlink:href="#img-5d4c7048-13" x="41.23" y="62.44"/>
          <use xlink:href="#img-5d4c7048-13" x="41.87" y="45.11"/>
          <use xlink:href="#img-5d4c7048-13" x="42.51" y="49.73"/>
          <use xlink:href="#img-5d4c7048-13" x="43.15" y="45.11"/>
          <use xlink:href="#img-5d4c7048-13" x="43.78" y="52.04"/>
          <use xlink:href="#img-5d4c7048-13" x="44.42" y="31.25"/>
          <use xlink:href="#img-5d4c7048-13" x="45.06" y="70.52"/>
          <use xlink:href="#img-5d4c7048-13" x="45.7" y="54.35"/>
          <use xlink:href="#img-5d4c7048-13" x="46.33" y="67.06"/>
          <use xlink:href="#img-5d4c7048-13" x="46.97" y="26.63"/>
          <use xlink:href="#img-5d4c7048-13" x="47.61" y="62.44"/>
          <use xlink:href="#img-5d4c7048-13" x="48.25" y="52.04"/>
          <use xlink:href="#img-5d4c7048-13" x="48.88" y="58.97"/>
          <use xlink:href="#img-5d4c7048-13" x="49.52" y="34.72"/>
          <use xlink:href="#img-5d4c7048-13" x="50.16" y="41.65"/>
          <use xlink:href="#img-5d4c7048-13" x="50.8" y="49.73"/>
          <use xlink:href="#img-5d4c7048-13" x="51.43" y="72.83"/>
          <use xlink:href="#img-5d4c7048-13" x="52.07" y="65.9"/>
          <use xlink:href="#img-5d4c7048-13" x="52.71" y="54.35"/>
          <use xlink:href="#img-5d4c7048-13" x="53.35" y="8.15"/>
          <use xlink:href="#img-5d4c7048-13" x="53.99" y="40.49"/>
          <use xlink:href="#img-5d4c7048-13" x="54.62" y="73.99"/>
          <use xlink:href="#img-5d4c7048-13" x="55.26" y="53.2"/>
          <use xlink:href="#img-5d4c7048-13" x="55.9" y="38.18"/>
          <use xlink:href="#img-5d4c7048-13" x="56.54" y="68.21"/>
          <use xlink:href="#img-5d4c7048-13" x="57.17" y="52.04"/>
          <use xlink:href="#img-5d4c7048-13" x="57.81" y="50.89"/>
          <use xlink:href="#img-5d4c7048-13" x="58.45" y="33.56"/>
          <use xlink:href="#img-5d4c7048-13" x="59.09" y="69.37"/>
          <use xlink:href="#img-5d4c7048-13" x="59.72" y="52.04"/>
          <use xlink:href="#img-5d4c7048-13" x="60.36" y="48.58"/>
          <use xlink:href="#img-5d4c7048-13" x="61" y="71.68"/>
          <use xlink:href="#img-5d4c7048-13" x="61.64" y="71.68"/>
          <use xlink:href="#img-5d4c7048-13" x="62.27" y="71.68"/>
          <use xlink:href="#img-5d4c7048-13" x="62.91" y="43.96"/>
          <use xlink:href="#img-5d4c7048-13" x="63.55" y="57.82"/>
          <use xlink:href="#img-5d4c7048-13" x="64.19" y="28.94"/>
          <use xlink:href="#img-5d4c7048-13" x="64.83" y="43.96"/>
          <use xlink:href="#img-5d4c7048-13" x="65.46" y="40.49"/>
          <use xlink:href="#img-5d4c7048-13" x="66.1" y="47.42"/>
          <use xlink:href="#img-5d4c7048-13" x="66.74" y="61.28"/>
          <use xlink:href="#img-5d4c7048-13" x="67.38" y="43.96"/>
          <use xlink:href="#img-5d4c7048-13" x="68.01" y="34.72"/>
          <use xlink:href="#img-5d4c7048-13" x="68.65" y="53.2"/>
          <use xlink:href="#img-5d4c7048-13" x="69.29" y="48.58"/>
          <use xlink:href="#img-5d4c7048-13" x="69.93" y="35.87"/>
          <use xlink:href="#img-5d4c7048-13" x="70.56" y="38.18"/>
          <use xlink:href="#img-5d4c7048-13" x="71.2" y="46.27"/>
          <use xlink:href="#img-5d4c7048-13" x="71.84" y="42.8"/>
          <use xlink:href="#img-5d4c7048-13" x="72.48" y="53.2"/>
          <use xlink:href="#img-5d4c7048-13" x="73.11" y="50.89"/>
          <use xlink:href="#img-5d4c7048-13" x="73.75" y="42.8"/>
          <use xlink:href="#img-5d4c7048-13" x="74.39" y="55.51"/>
          <use xlink:href="#img-5d4c7048-13" x="75.03" y="73.99"/>
          <use xlink:href="#img-5d4c7048-13" x="75.67" y="48.58"/>
          <use xlink:href="#img-5d4c7048-13" x="76.3" y="70.52"/>
          <use xlink:href="#img-5d4c7048-13" x="76.94" y="30.1"/>
          <use xlink:href="#img-5d4c7048-13" x="77.58" y="34.72"/>
          <use xlink:href="#img-5d4c7048-13" x="78.22" y="52.04"/>
          <use xlink:href="#img-5d4c7048-13" x="78.85" y="47.42"/>
          <use xlink:href="#img-5d4c7048-13" x="79.49" y="62.44"/>
          <use xlink:href="#img-5d4c7048-13" x="80.13" y="73.99"/>
          <use xlink:href="#img-5d4c7048-13" x="80.77" y="41.65"/>
          <use xlink:href="#img-5d4c7048-13" x="81.4" y="49.73"/>
          <use xlink:href="#img-5d4c7048-13" x="82.04" y="47.42"/>
          <use xlink:href="#img-5d4c7048-13" x="82.68" y="57.82"/>
          <use xlink:href="#img-5d4c7048-13" x="83.32" y="55.51"/>
          <use xlink:href="#img-5d4c7048-13" x="83.95" y="54.35"/>
          <use xlink:href="#img-5d4c7048-13" x="84.59" y="50.89"/>
          <use xlink:href="#img-5d4c7048-13" x="85.23" y="62.44"/>
          <use xlink:href="#img-5d4c7048-13" x="85.87" y="43.96"/>
          <use xlink:href="#img-5d4c7048-13" x="86.51" y="53.2"/>
          <use xlink:href="#img-5d4c7048-13" x="87.14" y="69.37"/>
          <use xlink:href="#img-5d4c7048-13" x="87.78" y="38.18"/>
          <use xlink:href="#img-5d4c7048-13" x="88.42" y="54.35"/>
          <use xlink:href="#img-5d4c7048-13" x="89.06" y="40.49"/>
          <use xlink:href="#img-5d4c7048-13" x="89.69" y="63.59"/>
          <use xlink:href="#img-5d4c7048-13" x="90.33" y="64.75"/>
          <use xlink:href="#img-5d4c7048-13" x="90.97" y="41.65"/>
          <use xlink:href="#img-5d4c7048-13" x="91.61" y="53.2"/>
          <use xlink:href="#img-5d4c7048-13" x="92.24" y="52.04"/>
          <use xlink:href="#img-5d4c7048-13" x="92.88" y="50.89"/>
          <use xlink:href="#img-5d4c7048-13" x="93.52" y="26.63"/>
          <use xlink:href="#img-5d4c7048-13" x="94.16" y="52.04"/>
          <use xlink:href="#img-5d4c7048-13" x="94.79" y="50.89"/>
          <use xlink:href="#img-5d4c7048-13" x="95.43" y="42.8"/>
          <use xlink:href="#img-5d4c7048-13" x="96.07" y="61.28"/>
          <use xlink:href="#img-5d4c7048-13" x="96.71" y="47.42"/>
          <use xlink:href="#img-5d4c7048-13" x="97.34" y="55.51"/>
          <use xlink:href="#img-5d4c7048-13" x="97.98" y="27.79"/>
          <use xlink:href="#img-5d4c7048-13" x="98.62" y="46.27"/>
          <use xlink:href="#img-5d4c7048-13" x="99.26" y="75.14"/>
          <use xlink:href="#img-5d4c7048-13" x="99.9" y="50.89"/>
          <use xlink:href="#img-5d4c7048-13" x="100.53" y="75.14"/>
          <use xlink:href="#img-5d4c7048-13" x="101.17" y="39.34"/>
          <use xlink:href="#img-5d4c7048-13" x="101.81" y="49.73"/>
          <use xlink:href="#img-5d4c7048-13" x="102.45" y="61.28"/>
          <use xlink:href="#img-5d4c7048-13" x="103.08" y="55.51"/>
          <use xlink:href="#img-5d4c7048-13" x="103.72" y="47.42"/>
          <use xlink:href="#img-5d4c7048-13" x="104.36" y="70.52"/>
          <use xlink:href="#img-5d4c7048-13" x="105" y="48.58"/>
          <use xlink:href="#img-5d4c7048-13" x="105.63" y="70.52"/>
          <use xlink:href="#img-5d4c7048-13" x="106.27" y="41.65"/>
          <use xlink:href="#img-5d4c7048-13" x="106.91" y="43.96"/>
          <use xlink:href="#img-5d4c7048-13" x="107.55" y="49.73"/>
          <use xlink:href="#img-5d4c7048-13" x="108.18" y="33.56"/>
          <use xlink:href="#img-5d4c7048-13" x="108.82" y="35.87"/>
          <use xlink:href="#img-5d4c7048-13" x="109.46" y="62.44"/>
          <use xlink:href="#img-5d4c7048-13" x="110.1" y="49.73"/>
          <use xlink:href="#img-5d4c7048-13" x="110.74" y="60.13"/>
          <use xlink:href="#img-5d4c7048-13" x="111.37" y="32.41"/>
          <use xlink:href="#img-5d4c7048-13" x="112.01" y="25.48"/>
          <use xlink:href="#img-5d4c7048-13" x="112.65" y="46.27"/>
          <use xlink:href="#img-5d4c7048-13" x="113.29" y="43.96"/>
          <use xlink:href="#img-5d4c7048-13" x="113.92" y="34.72"/>
          <use xlink:href="#img-5d4c7048-13" x="114.56" y="47.42"/>
          <use xlink:href="#img-5d4c7048-13" x="115.2" y="46.27"/>
          <use xlink:href="#img-5d4c7048-13" x="115.84" y="53.2"/>
          <use xlink:href="#img-5d4c7048-13" x="116.47" y="70.52"/>
          <use xlink:href="#img-5d4c7048-13" x="117.11" y="70.52"/>
          <use xlink:href="#img-5d4c7048-13" x="117.75" y="56.66"/>
          <use xlink:href="#img-5d4c7048-13" x="118.39" y="50.89"/>
          <use xlink:href="#img-5d4c7048-13" x="119.02" y="61.28"/>
          <use xlink:href="#img-5d4c7048-13" x="119.66" y="53.2"/>
          <use xlink:href="#img-5d4c7048-13" x="120.3" y="63.59"/>
          <use xlink:href="#img-5d4c7048-13" x="120.94" y="48.58"/>
          <use xlink:href="#img-5d4c7048-13" x="121.58" y="50.89"/>
          <use xlink:href="#img-5d4c7048-13" x="122.21" y="57.82"/>
          <use xlink:href="#img-5d4c7048-13" x="122.85" y="19.7"/>
          <use xlink:href="#img-5d4c7048-13" x="123.49" y="53.2"/>
          <use xlink:href="#img-5d4c7048-13" x="124.13" y="72.83"/>
          <use xlink:href="#img-5d4c7048-13" x="124.76" y="38.18"/>
          <use xlink:href="#img-5d4c7048-13" x="125.4" y="75.14"/>
          <use xlink:href="#img-5d4c7048-13" x="126.04" y="41.65"/>
          <use xlink:href="#img-5d4c7048-13" x="126.68" y="42.8"/>
          <use xlink:href="#img-5d4c7048-13" x="127.31" y="58.97"/>
          <use xlink:href="#img-5d4c7048-13" x="127.95" y="38.18"/>
          <use xlink:href="#img-5d4c7048-13" x="128.59" y="60.13"/>
          <use xlink:href="#img-5d4c7048-13" x="129.23" y="33.56"/>
          <use xlink:href="#img-5d4c7048-13" x="129.86" y="53.2"/>
          <use xlink:href="#img-5d4c7048-13" x="130.5" y="49.73"/>
          <use xlink:href="#img-5d4c7048-13" x="131.14" y="37.03"/>
          <use xlink:href="#img-5d4c7048-13" x="131.78" y="34.72"/>
          <use xlink:href="#img-5d4c7048-13" x="132.42" y="46.27"/>
          <use xlink:href="#img-5d4c7048-13" x="133.05" y="63.59"/>
          <use xlink:href="#img-5d4c7048-13" x="133.69" y="61.28"/>
          <use xlink:href="#img-5d4c7048-13" x="134.33" y="49.73"/>
          <use xlink:href="#img-5d4c7048-13" x="134.97" y="49.73"/>
          <use xlink:href="#img-5d4c7048-13" x="135.6" y="34.72"/>
          <use xlink:href="#img-5d4c7048-13" x="136.24" y="68.21"/>
          <use xlink:href="#img-5d4c7048-13" x="136.88" y="70.52"/>
          <use xlink:href="#img-5d4c7048-13" x="137.52" y="57.82"/>
          <use xlink:href="#img-5d4c7048-13" x="138.15" y="52.04"/>
          <use xlink:href="#img-5d4c7048-13" x="138.79" y="40.49"/>
          <use xlink:href="#img-5d4c7048-13" x="139.43" y="41.65"/>
          <use xlink:href="#img-5d4c7048-13" x="140.07" y="67.06"/>
          <use xlink:href="#img-5d4c7048-13" x="140.7" y="53.2"/>
          <use xlink:href="#img-5d4c7048-13" x="141.34" y="45.11"/>
          <use xlink:href="#img-5d4c7048-13" x="141.98" y="35.87"/>
          <use xlink:href="#img-5d4c7048-13" x="142.62" y="64.75"/>
          <use xlink:href="#img-5d4c7048-13" x="143.26" y="63.59"/>
          <use xlink:href="#img-5d4c7048-13" x="143.89" y="71.68"/>
          <use xlink:href="#img-5d4c7048-13" x="144.53" y="42.8"/>
          <use xlink:href="#img-5d4c7048-13" x="145.17" y="43.96"/>
          <use xlink:href="#img-5d4c7048-13" x="145.81" y="68.21"/>
          <use xlink:href="#img-5d4c7048-13" x="146.44" y="75.14"/>
          <use xlink:href="#img-5d4c7048-13" x="147.08" y="33.56"/>
        </g>
      </g>
    </g>
  </g>
</g>
  <g class="guide ylabels" font-size="2.82" font-family="'PT Sans Caption','Helvetica Neue','Helvetica',sans-serif" fill="#A1A1A1" id="img-5d4c7048-14">
    <text x="16.96" y="76.29" text-anchor="end" dy="0.35em">0</text>
    <text x="16.96" y="64.75" text-anchor="end" dy="0.35em">10</text>
    <text x="16.96" y="53.2" text-anchor="end" dy="0.35em">20</text>
    <text x="16.96" y="41.65" text-anchor="end" dy="0.35em">30</text>
    <text x="16.96" y="30.1" text-anchor="end" dy="0.35em">40</text>
    <text x="16.96" y="18.55" text-anchor="end" dy="0.35em">50</text>
    <text x="16.96" y="7" text-anchor="end" dy="0.35em">60</text>
  </g>
  <g font-size="3.88" font-family="'PT Sans','Helvetica Neue','Helvetica',sans-serif" fill="#A1A1A1" stroke="#000000" stroke-opacity="0.000" id="img-5d4c7048-15">
    <text x="8.81" y="39.65" text-anchor="middle" dy="0.35em" transform="rotate(-90, 8.81, 41.65)">langs_count</text>
  </g>
</g>
<defs>
  <clipPath id="img-5d4c7048-5">
  <path d="M17.96,5 L 147.4 5 147.4 78.3 17.96 78.3" />
</clipPath>
  <g id="img-5d4c7048-13">
    <circle cx="0" cy="0" r="0.9"/>
  </g>
</defs>
</svg>
